Coordinates
version=1
nRows=24
nColumns=24
inDegrees=yes

Units are S.I. units (second, meters, Newtons, ...)
Angles are in degrees.

endheader
time	pelvis_tilt	pelvis_list	pelvis_rotation	pelvis_tx	pelvis_ty	pelvis_tz	hip_flexion_r	hip_adduction_r	hip_rotation_r	knee_angle_r	ankle_angle_r	subtalar_angle_r	mtp_angle_r	hip_flexion_l	hip_adduction_l	hip_rotation_l	knee_angle_l	ankle_angle_l	subtalar_angle_l	mtp_angle_l	lumbar_extension	lumbar_bending	lumbar_rotation
      0.45400000	     -3.70966881	     -0.07839811	      1.92928478	     -0.70982954	      1.01222404	      0.26597260	     17.60986943	      0.42625848	     -1.30585552	      1.18262770	      4.37320490	     -5.39331500	      0.17904454	     -7.97815728	      4.37655937	      9.59684682	    -14.32755275	      7.67629890	    -10.09776300	      0.34690289	     -8.84704710	      8.98560130	     -9.93128462
      0.45816667	     -3.70757899	     -0.13327719	      1.95262881	     -0.70438495	      1.01162934	      0.26615305	     17.52093609	      0.56110516	     -1.11246723	      1.18755711	      4.15615943	     -5.25897900	      0.27340479	     -8.04433271	      4.28340635	      9.40174767	    -14.84632649	      7.69455192	     -9.72739133	      0.48052749	     -8.82038360	      9.06803504	     -9.84489766
      0.46233333	     -3.70771637	     -0.20345599	      1.96375530	     -0.69892785	      1.01104373	      0.26637818	     17.43864418	      0.71591769	     -0.85869865	      1.11872634	      3.88846614	     -5.20722974	      0.38910558	     -8.08958855	      4.16817813	      9.15416651	    -15.39522711	      7.73165759	     -9.29084689	      0.69307868	     -8.79365247	      9.15743104	     -9.80958773
      0.46650000	     -3.69925719	     -0.29233301	      1.96523475	     -0.69343547	      1.01046045	      0.26661987	     17.35378322	      0.89294069	     -0.59326876	      0.97631717	      3.58831377	     -5.19348562	      0.52010061	     -8.13299774	      4.03122077	      8.88832468	    -15.96782994	      7.75456039	     -8.84085274	      0.97496542	     -8.77437139	      9.27551408	     -9.75793542
      0.47066667	     -3.70197005	     -0.38520441	      1.95952766	     -0.68793252	      1.00987524	      0.26688157	     17.29813696	      1.07529627	     -0.31094002	      0.74197508	      3.26196316	     -5.23439909	      0.67448643	     -8.14923012	      3.88877280	      8.60785466	    -16.56932488	      7.76210825	     -8.38690969	      1.34878990	     -8.73802473	      9.40200684	     -9.70279834
      0.47483333	     -3.64832412	     -0.50705145	      1.94317567	     -0.68238037	      1.00937461	      0.26718128	     17.18137964	      1.29406582	     -0.03037613	      0.45967150	      2.91321407	     -5.30501459	      0.85160345	     -8.21648992	      3.70694151	      8.29150342	    -17.18385360	      7.74449509	     -7.89538024	      1.82277705	     -8.77456907	      9.55258840	     -9.63981042
      0.47900000	     -3.66777789	     -0.62622938	      1.91569517	     -0.67682923	      1.00875148	      0.26749687	     17.16825153	      1.50918279	      0.27197392	      0.08294218	      2.56552581	     -5.41769358	      1.03651510	     -8.17915851	      3.53132206	      7.95497305	    -17.85487246	      7.71311832	     -7.39548401	      2.35973086	     -8.71087157	      9.71043665	     -9.56505682
      0.48316667	     -3.60117901	     -0.77026479	      1.88162221	     -0.67121995	      1.00826687	      0.26784813	     17.05989416	      1.75690917	      0.56014352	     -0.32807901	      2.20099203	     -5.55671339	      1.24536515	     -8.22985179	      3.31780812	      7.58389723	    -18.52544279	      7.64695089	     -6.86612751	      3.02114250	     -8.75637498	      9.88925771	     -9.49549908
      0.48733333	     -3.61787051	     -0.91422260	      1.84224597	     -0.66562253	      1.00766114	      0.26821227	     17.07053951	      2.00158310	      0.84654490	     -0.83243542	      1.85969339	     -5.71676724	      1.44667837	     -8.15707651	      3.10744732	      7.20920883	    -19.25904944	      7.53805736	     -6.36330684	      3.71024935	     -8.69844725	     10.05839709	     -9.42028789
      0.49150000	     -3.52253719	     -1.06801262	      1.79782981	     -0.65996373	      1.00722826	      0.26855907	     16.95906067	      2.25986915	      1.10591455	     -1.36185482	      1.51183142	     -5.93513660	      3.27851228	     -8.22961786	      2.88614715	      6.87847712	    -19.92306611	      7.19179066	     -6.08479045	     10.27890719	     -8.77363076	     10.28392379	     -9.36760343
      0.49566667	     -3.53593280	     -1.21111395	      1.75038807	     -0.65433726	      1.00662875	      0.26893816	     17.00531454	      2.50270696	      1.32698829	     -1.99907117	      1.23538531	     -6.05292821	      3.30717946	     -8.11466370	      2.66750460	      6.45789474	    -20.73732531	      7.02494619	     -5.51332059	     10.37424932	     -8.71191115	     10.45188997	     -9.27876186
      0.49983333	     -3.49209711	     -1.37080477	      1.69336735	     -0.64868446	      1.00612068	      0.26934930	     16.98683747	      2.76957732	      1.57032421	     -2.64937599	      0.97341215	     -6.26649709	      3.34197055	     -8.04605875	      2.42257639	      6.01009317	    -21.57739371	      6.83476896	     -4.93262204	     10.55889248	     -8.72780261	     10.64850460	     -9.20331843
      0.50400000	     -3.48012848	     -1.52068427	      1.63550573	     -0.64304009	      1.00555831	      0.26976542	     17.02818171	      3.02438506	      1.78783030	     -3.36871902	      0.75338582	     -6.49812758	      3.38513421	     -7.91130213	      2.18323013	      5.55222247	    -22.47251248	      6.61743337	     -4.32302547	     10.85392808	     -8.70512827	     10.83377562	     -9.11703466
      0.50816667	     -3.44979053	     -1.67937242	      1.57444416	     -0.63738288	      1.00503046	      0.27019523	     17.06039519	      3.28942220	      1.98092326	     -4.12509461	      0.58441043	     -6.73111961	      3.43444680	     -7.76988107	      1.92589304	      5.07133599	    -23.41051102	      6.34800357	     -3.70613329	     11.25399097	     -8.70292849	     11.03011542	     -9.03468518
      0.51233333	     -3.41843007	     -1.85337508	      1.51333685	     -0.63169107	      1.00452844	      0.27063599	     17.08335877	      3.57228274	      2.19388237	     -4.87900861	      0.42120482	     -7.07045776	      4.01533579	     -7.61426255	      1.64568848	      4.59980986	    -24.35334745	      5.86410014	     -3.25228590	     16.98685711	     -8.69510211	     11.24625815	     -8.93969380
      0.51650000	     -3.38533327	     -1.99400119	      1.44045456	     -0.62604875	      1.00400159	      0.27108279	     17.15701310	      3.81650479	      2.32228484	     -5.75397249	      0.45161074	     -7.16553657	      4.02641189	     -7.41623316	      1.39217479	      4.08336548	    -25.38702953	      5.48228565	     -2.61167628	     17.08081376	     -8.70512648	     11.41433462	     -8.89110693
      0.52066667	     -3.38317462	     -2.14980336	      1.37773520	     -0.62040627	      1.00344026	      0.27152577	     17.26690014	      4.07449755	      2.43931276	     -6.64489325	      0.49058690	     -7.35452727	      4.03427691	     -7.15171421	      1.11488978	      3.58578407	    -26.48017429	      5.07984824	     -1.96108248	     17.26993096	     -8.67382569	     11.60574923	     -8.81206544
      0.52483333	     -3.36084946	     -2.29185322	      1.31595529	     -0.61477207	      1.00292306	      0.27197403	     17.35846203	      4.31794313	      2.55123345	     -7.55379353	      0.62205395	     -7.52118774	      4.04040825	     -6.87810021	      0.84054697	      3.07332028	    -27.61257747	      4.58477692	     -1.34367439	     17.51759033	     -8.66575974	     11.77353157	     -8.75073889
      0.52900000	     -3.28567453	     -2.47929449	      1.26911358	     -0.60911942	      1.00248315	      0.27244575	     17.36057284	      4.61282321	      2.68716026	     -8.39730125	      0.69813034	     -7.85678191	      3.95829549	     -6.63300753	      0.48877733	      2.53500537	    -28.77877332	      3.98808800	     -0.65353820	     22.34060262	     -8.72312550	     12.01951549	     -8.71379951
      0.53316667	     -3.31613194	     -2.58615692	      1.20303076	     -0.60354143	      1.00188395	      0.27288052	     17.55690922	      4.81150489	      2.72093308	     -9.42715369	      1.05911065	     -7.85400916	      3.96375740	     -6.24035371	      0.24408824	      2.06089021	    -30.00528338	      3.36017843	     -0.12276198	     22.42998237	     -8.65808578	     12.12794761	     -8.62487025
      0.53733333	     -3.29618580	     -2.71140246	      1.16146183	     -0.59796402	      1.00138361	      0.27329716	     17.67992771	      5.02500950	      2.73295678	    -10.42304226	      1.41929063	     -7.90403020	      3.95930224	     -5.87313117	     -0.03948460	      1.60279797	    -31.26667141	      2.69588800	      0.49411184	     22.58986160	     -8.65258868	     12.28255372	     -8.56956402
      0.54150000	     -3.27168451	     -2.84887725	      1.12811394	     -0.59240148	      1.00088533	      0.27370769	     17.78589751	      5.24883289	      2.74246751	    -11.39823168	      1.82659947	     -7.95751194	      3.94646534	     -5.47982117	     -0.34884823	      1.15305205	    -32.57724964	      1.99709270	      1.11500351	     22.80275876	     -8.65448324	     12.44247181	     -8.52357991
      0.54566667	     -3.21624846	     -2.97837751	      1.11327901	     -0.58685294	      1.00045019	      0.27407903	     17.85481399	      5.45506839	      2.70928895	    -12.37395876	      2.31585225	     -7.94042145	      3.30731407	     -5.09902074	     -0.65955632	      0.74109581	    -33.89029801	      1.14469134	      1.66032241	     27.30690133	     -8.69530913	     12.61626159	     -8.48416952
      0.54983333	     -3.19536479	     -3.09669298	      1.09018590	     -0.58133757	      0.99997807	      0.27449159	     17.94578526	      5.65589964	      2.72245309	    -13.31770972	      2.79068323	     -8.01225660	      3.30375132	     -4.64863893	     -0.96793669	      0.32763104	    -35.25868139	      0.31980423	      2.23206306	     27.34721425	     -8.69149237	     12.73942611	     -8.44992145
